<svg
    width="34"
    height="35"
    viewBox="0 0 34 35"
    fill="none"
    xmlns="http://www.w3.org/2000/svg"
>
<path
        d="M8.49961 16.75H9.49961V15.75V12.25C9.49961 7.94227 12.8846 4.5 16.9996 4.5C21.1146 4.5 24.4996 7.94227 24.4996 12.25V15.75V16.75H25.4996C26.7979 16.75 27.8996 17.8418 27.8996 19.25V28C27.8996 29.4082 26.7979 30.5 25.4996 30.5H8.49961C7.20125 30.5 6.09961 29.4082 6.09961 28V19.25C6.09961 17.8418 7.20125 16.75 8.49961 16.75ZM22.0996 16.75H23.0996V15.75V12.25C23.0996 8.82574 20.3957 6 16.9996 6C13.6035 6 10.8996 8.82574 10.8996 12.25V15.75V16.75H11.8996H22.0996Z"
        stroke="#828282"
        stroke-width="2"
    />
</svg>
